<mxfile host="app.diagrams.net" modified="2023-11-26T15:28:43.962Z" agent="Mozilla/5.0 (Macintosh; Intel Mac OS X 10_15_7) AppleWebKit/537.36 (KHTML, like Gecko) Chrome/119.0.0.0 Safari/537.36" etag="M9SXUKJtXuwFmPeCY8KU" version="22.1.4" type="github">
  <diagram name="Page-1" id="fdHkIKtGjXYSEzS2XqVD">
    <mxGraphModel dx="1688" dy="613" grid="1" gridSize="10" guides="1" tooltips="1" connect="1" arrows="1" fold="1" page="1" pageScale="1" pageWidth="850" pageHeight="1100" math="0" shadow="0">
      <root>
        <mxCell id="0" />
        <mxCell id="1" parent="0" />
        <mxCell id="s09VsKY-C5sdKV1U9pFJ-1" value="" style="rounded=1;whiteSpace=wrap;html=1;" vertex="1" parent="1">
          <mxGeometry x="60" y="290" width="400" height="460" as="geometry" />
        </mxCell>
        <mxCell id="s09VsKY-C5sdKV1U9pFJ-2" value="" style="rounded=1;whiteSpace=wrap;html=1;" vertex="1" parent="1">
          <mxGeometry x="100" y="370" width="310" height="80" as="geometry" />
        </mxCell>
        <mxCell id="s09VsKY-C5sdKV1U9pFJ-3" value="Node 1" style="text;html=1;strokeColor=none;fillColor=none;align=center;verticalAlign=middle;whiteSpace=wrap;rounded=0;" vertex="1" parent="1">
          <mxGeometry x="100" y="340" width="60" height="30" as="geometry" />
        </mxCell>
        <mxCell id="s09VsKY-C5sdKV1U9pFJ-4" value="Feed 01" style="rounded=1;whiteSpace=wrap;html=1;" vertex="1" parent="1">
          <mxGeometry x="120" y="385" width="80" height="50" as="geometry" />
        </mxCell>
        <mxCell id="s09VsKY-C5sdKV1U9pFJ-5" value="Feed 03" style="rounded=1;whiteSpace=wrap;html=1;" vertex="1" parent="1">
          <mxGeometry x="220" y="385" width="80" height="50" as="geometry" />
        </mxCell>
        <mxCell id="s09VsKY-C5sdKV1U9pFJ-6" value="Feed 05" style="rounded=1;whiteSpace=wrap;html=1;" vertex="1" parent="1">
          <mxGeometry x="320" y="385" width="80" height="50" as="geometry" />
        </mxCell>
        <mxCell id="s09VsKY-C5sdKV1U9pFJ-7" value="" style="rounded=1;whiteSpace=wrap;html=1;" vertex="1" parent="1">
          <mxGeometry x="100" y="490" width="310" height="80" as="geometry" />
        </mxCell>
        <mxCell id="s09VsKY-C5sdKV1U9pFJ-8" value="Node 2" style="text;html=1;strokeColor=none;fillColor=none;align=center;verticalAlign=middle;whiteSpace=wrap;rounded=0;" vertex="1" parent="1">
          <mxGeometry x="100" y="460" width="60" height="30" as="geometry" />
        </mxCell>
        <mxCell id="s09VsKY-C5sdKV1U9pFJ-9" value="Feed 02" style="rounded=1;whiteSpace=wrap;html=1;" vertex="1" parent="1">
          <mxGeometry x="120" y="505" width="80" height="50" as="geometry" />
        </mxCell>
        <mxCell id="s09VsKY-C5sdKV1U9pFJ-10" value="Feed 07" style="rounded=1;whiteSpace=wrap;html=1;" vertex="1" parent="1">
          <mxGeometry x="220" y="505" width="80" height="50" as="geometry" />
        </mxCell>
        <mxCell id="s09VsKY-C5sdKV1U9pFJ-11" value="Feed 08" style="rounded=1;whiteSpace=wrap;html=1;" vertex="1" parent="1">
          <mxGeometry x="320" y="505" width="80" height="50" as="geometry" />
        </mxCell>
        <mxCell id="s09VsKY-C5sdKV1U9pFJ-12" value="" style="rounded=1;whiteSpace=wrap;html=1;" vertex="1" parent="1">
          <mxGeometry x="100" y="620" width="310" height="80" as="geometry" />
        </mxCell>
        <mxCell id="s09VsKY-C5sdKV1U9pFJ-13" value="Node 3" style="text;html=1;strokeColor=none;fillColor=none;align=center;verticalAlign=middle;whiteSpace=wrap;rounded=0;" vertex="1" parent="1">
          <mxGeometry x="100" y="590" width="60" height="30" as="geometry" />
        </mxCell>
        <mxCell id="s09VsKY-C5sdKV1U9pFJ-14" value="Feed 04" style="rounded=1;whiteSpace=wrap;html=1;" vertex="1" parent="1">
          <mxGeometry x="120" y="635" width="80" height="50" as="geometry" />
        </mxCell>
        <mxCell id="s09VsKY-C5sdKV1U9pFJ-15" value="Feed 06" style="rounded=1;whiteSpace=wrap;html=1;" vertex="1" parent="1">
          <mxGeometry x="220" y="635" width="80" height="50" as="geometry" />
        </mxCell>
        <mxCell id="s09VsKY-C5sdKV1U9pFJ-16" value="Feed 09" style="rounded=1;whiteSpace=wrap;html=1;" vertex="1" parent="1">
          <mxGeometry x="320" y="635" width="80" height="50" as="geometry" />
        </mxCell>
        <mxCell id="s09VsKY-C5sdKV1U9pFJ-19" value="File Dectection" style="text;html=1;strokeColor=none;fillColor=none;align=center;verticalAlign=middle;whiteSpace=wrap;rounded=0;" vertex="1" parent="1">
          <mxGeometry x="205" y="300" width="110" height="30" as="geometry" />
        </mxCell>
        <mxCell id="s09VsKY-C5sdKV1U9pFJ-20" value="" style="rounded=1;whiteSpace=wrap;html=1;" vertex="1" parent="1">
          <mxGeometry x="650" y="290" width="400" height="460" as="geometry" />
        </mxCell>
        <mxCell id="s09VsKY-C5sdKV1U9pFJ-21" value="" style="rounded=1;whiteSpace=wrap;html=1;" vertex="1" parent="1">
          <mxGeometry x="690" y="370" width="310" height="80" as="geometry" />
        </mxCell>
        <mxCell id="s09VsKY-C5sdKV1U9pFJ-22" value="Node 1" style="text;html=1;strokeColor=none;fillColor=none;align=center;verticalAlign=middle;whiteSpace=wrap;rounded=0;" vertex="1" parent="1">
          <mxGeometry x="690" y="340" width="60" height="30" as="geometry" />
        </mxCell>
        <mxCell id="s09VsKY-C5sdKV1U9pFJ-23" value="Feed 02" style="rounded=1;whiteSpace=wrap;html=1;" vertex="1" parent="1">
          <mxGeometry x="710" y="385" width="80" height="50" as="geometry" />
        </mxCell>
        <mxCell id="s09VsKY-C5sdKV1U9pFJ-24" value="Feed 04" style="rounded=1;whiteSpace=wrap;html=1;" vertex="1" parent="1">
          <mxGeometry x="810" y="385" width="80" height="50" as="geometry" />
        </mxCell>
        <mxCell id="s09VsKY-C5sdKV1U9pFJ-25" value="Feed 06" style="rounded=1;whiteSpace=wrap;html=1;" vertex="1" parent="1">
          <mxGeometry x="910" y="385" width="80" height="50" as="geometry" />
        </mxCell>
        <mxCell id="s09VsKY-C5sdKV1U9pFJ-26" value="" style="rounded=1;whiteSpace=wrap;html=1;" vertex="1" parent="1">
          <mxGeometry x="690" y="490" width="310" height="80" as="geometry" />
        </mxCell>
        <mxCell id="s09VsKY-C5sdKV1U9pFJ-27" value="Node 2" style="text;html=1;strokeColor=none;fillColor=none;align=center;verticalAlign=middle;whiteSpace=wrap;rounded=0;" vertex="1" parent="1">
          <mxGeometry x="690" y="460" width="60" height="30" as="geometry" />
        </mxCell>
        <mxCell id="s09VsKY-C5sdKV1U9pFJ-28" value="Feed 01" style="rounded=1;whiteSpace=wrap;html=1;" vertex="1" parent="1">
          <mxGeometry x="710" y="505" width="80" height="50" as="geometry" />
        </mxCell>
        <mxCell id="s09VsKY-C5sdKV1U9pFJ-29" value="Feed 03" style="rounded=1;whiteSpace=wrap;html=1;" vertex="1" parent="1">
          <mxGeometry x="810" y="505" width="80" height="50" as="geometry" />
        </mxCell>
        <mxCell id="s09VsKY-C5sdKV1U9pFJ-30" value="Feed 07" style="rounded=1;whiteSpace=wrap;html=1;" vertex="1" parent="1">
          <mxGeometry x="910" y="505" width="80" height="50" as="geometry" />
        </mxCell>
        <mxCell id="s09VsKY-C5sdKV1U9pFJ-31" value="" style="rounded=1;whiteSpace=wrap;html=1;" vertex="1" parent="1">
          <mxGeometry x="690" y="620" width="310" height="80" as="geometry" />
        </mxCell>
        <mxCell id="s09VsKY-C5sdKV1U9pFJ-32" value="Node 3" style="text;html=1;strokeColor=none;fillColor=none;align=center;verticalAlign=middle;whiteSpace=wrap;rounded=0;" vertex="1" parent="1">
          <mxGeometry x="690" y="590" width="60" height="30" as="geometry" />
        </mxCell>
        <mxCell id="s09VsKY-C5sdKV1U9pFJ-33" value="Feed 05" style="rounded=1;whiteSpace=wrap;html=1;" vertex="1" parent="1">
          <mxGeometry x="710" y="635" width="80" height="50" as="geometry" />
        </mxCell>
        <mxCell id="s09VsKY-C5sdKV1U9pFJ-34" value="Feed 08" style="rounded=1;whiteSpace=wrap;html=1;" vertex="1" parent="1">
          <mxGeometry x="810" y="635" width="80" height="50" as="geometry" />
        </mxCell>
        <mxCell id="s09VsKY-C5sdKV1U9pFJ-35" value="Feed 09" style="rounded=1;whiteSpace=wrap;html=1;" vertex="1" parent="1">
          <mxGeometry x="910" y="635" width="80" height="50" as="geometry" />
        </mxCell>
        <mxCell id="s09VsKY-C5sdKV1U9pFJ-36" value="File Download" style="text;html=1;strokeColor=none;fillColor=none;align=center;verticalAlign=middle;whiteSpace=wrap;rounded=0;" vertex="1" parent="1">
          <mxGeometry x="795" y="300" width="110" height="30" as="geometry" />
        </mxCell>
        <mxCell id="s09VsKY-C5sdKV1U9pFJ-37" value="" style="shape=flexArrow;endArrow=classic;html=1;rounded=0;" edge="1" parent="1">
          <mxGeometry width="50" height="50" relative="1" as="geometry">
            <mxPoint x="520" y="500" as="sourcePoint" />
            <mxPoint x="620" y="500" as="targetPoint" />
          </mxGeometry>
        </mxCell>
      </root>
    </mxGraphModel>
  </diagram>
</mxfile>
